<svg xmlns="http://www.w3.org/2000/svg" width="20" height="20" viewBox="0 0 20 20"><path fill="#fff" d="M17.125 7.173l-2.046-5.636c-.151-.416-.595-.636-.989-.492L.493 6.008c-.395.143-.594.597-.443 1.013l2.157 5.942V9.778c0-1.437 1.148-2.605 2.561-2.605h3.593l4.285-3.008 2.48 3.008h1.999zm2.113 1.804H4.768c-.42 0-.762.359-.762.802V19.2c0 .442.341.802.762.802h14.47c.421 0 .762-.359.762-.802V9.778c0-.442-.341-.801-.762-.801zm-1.104 9.02H6.139v-1.719l1.845-4.295 2.769 3.437 2.597-2.662 3.339-1.205 1.445 3.222v3.222z"/></svg>