<svg xmlns="http://www.w3.org/2000/svg" width="1429" height="456" viewBox="0 0 1348 430" shape-rendering="geometricPrecision" text-rendering="geometricPrecision" image-rendering="optimizeQuality" fill-rule="evenodd" clip-rule="evenodd"><defs><style>.fil0{fill:#d8193d}.fil1,.fil2{fill:#fff}.fil2{fill-rule:nonzero}</style></defs><g id="Layer_x0020_1"><g id="_744894288"><path class="fil0" d="M0 0v430h1348V0z"/><path class="fil1" d="M408 128v-20h-24v20h24zm-32 0v-20h-24v20h24zm-193 48v-20h23c6 0 9 3 9 9v3c0 5-3 8-9 8h-23zm0 40v-20h27c6 0 9 3 9 9v2c0 6-3 9-9 9h-27zm303-7v-46c0-5 3-8 8-8h24c5 0 8 3 8 8v46c0 6-3 8-8 8h-24c-5 0-8-2-8-8zm-68 27v-20h-52v-21h41v-19h-41v-20h52v-19h-77v99h77zm-181-7c4-4 6-11 6-20 0-4 0-7-1-10s-2-6-4-8c-1-2-3-4-5-5s-4-2-6-2c3-2 6-4 9-8 2-4 3-8 3-14 0-9-2-15-6-19s-11-6-20-6h-55v99h59c9 0 16-2 20-7zm93 5v-18h-17c-2 1-5 1-7 1h-21c-2 0-4-1-5-2s-2-3-2-5v-45c0-6 3-9 8-9h44v-19h-49c-10 0-17 2-21 6-5 5-7 12-7 22v45c0 9 2 15 6 20 5 4 11 6 20 6h33c6 0 12 0 18-2zm214-4c5-4 7-11 7-21v-46c0-9-2-17-7-21-4-5-11-7-21-7h-34c-10 0-17 2-21 7-4 4-7 12-7 21v46c0 10 3 17 7 21 4 5 11 7 21 7h34c10 0 17-2 21-7zm-444 57V87h456l65 100-65 100H100z"/><path class="fil2" d="M1030 188l57 100h-55l-45-81h-26v81h-52V90h52v78h26l29-54c4-8 9-15 15-20 7-5 15-7 25-7h10c3 1 6 1 8 1 3 1 6 1 8 2v38h-11c-3 0-6 1-8 3-2 1-4 3-5 5l-28 52zm192-101h56l-64 102 66 99h-57l-40-63-40 63h-56l65-99-64-102h57l38 65zM600 288l62-100 1-1-1-1-62-100h54l51 81h20V86h51v81h20l28-53c4-8 9-15 15-20s15-7 25-7h9c3 1 6 1 8 1 3 1 6 1 8 2v38h-11c-3 0-6 1-8 3-2 1-4 3-5 5l-27 52 55 100h-54l-43-81h-20v81h-51v-81h-20l-51 81h-54zm-465 37h15l-16 41h-16l-15-41h14l9 28zm36 13c0 1 0 1 1 2 0 0 1 1 2 1h14c3 0 6 1 8 3s3 5 3 8v3c0 4-1 7-3 9s-5 3-8 3h-10c-4 0-7 0-10-1h-10v-11c3 1 6 1 9 1h18c1-1 1-2 1-2v-3h-17c-3 0-6-1-8-3-3-2-4-5-4-9v-2c0-4 1-7 4-9 2-2 5-3 8-3h27v10h-22c-1 0-2 0-2 1-1 0-1 1-1 2zm40-1c0-4 1-7 3-10 3-2 6-3 10-3h15c4 0 7 1 9 4 3 2 4 5 4 9v14h-27v3c0 1 0 1 1 2l1 1h15c3-1 5-1 8-1v9c-3 1-6 1-9 1-3 1-6 1-9 1h-9c-4 0-7-1-9-3s-3-5-3-9v-18zm17-3c-2 0-3 1-3 3v4h13v-4c0-2-1-3-3-3h-7zm66 4c0-2-1-3-3-3h-9c-2 0-3 1-3 3v15c0 2 1 4 3 4h9c2 0 3-2 3-4v-15zm14 17c0 3-1 7-4 9-2 2-5 3-9 3h-18c-4 0-7-1-9-3s-3-6-3-9v-18c0-4 1-7 3-10 2-2 5-3 9-3h18c4 0 7 1 9 3 3 3 4 6 4 10v18zm27-4v2c1 1 2 1 2 1h9c1 0 2 0 3-1v-18h-11c-2 0-3 2-3 4v12zm-14-14c0-3 1-7 3-9s6-3 9-3h29v43c0 4-1 7-3 9s-5 3-8 3h-10c-3 0-6 0-8-1h-10v-10c3 0 6 0 8 1h15c1 0 1-1 2-1 0-1 1-1 1-2v-4c-2 0-3 1-5 1h-4c-2 1-3 1-5 1h-2c-4 0-7-1-9-3-2-3-3-5-3-9v-16zm70 13v16h-14v-54h14v27h6l9-14h14l-12 20 12 21h-14l-9-16zm63-15h-10v31h-13v-54h13v14c2 0 4-1 5-1s3 0 4-1h8c4 0 7 1 9 3 2 3 3 5 3 9v30h-14v-28c0-1 0-2-1-2 0-1-1-1-1-1h-3zm31 20h14v11h-14zm40-30v5c2-1 3-2 4-3 2-1 3-1 5-2 2 0 3-1 6-1h3v12h-7c-1 0-2 0-3 1-2 0-3 0-4 1-1 0-2 1-3 1v27h-13v-41h12zm60 41v-4c-2 1-3 2-5 3-1 0-3 1-4 1-2 1-4 1-5 1h-4c-3 0-6-1-8-3s-4-5-4-9v-30h14v28c0 1 0 1 1 2 0 0 1 1 2 1h6c1-1 2-1 3-1s2 0 3-1v-29h14v41h-13z"/></g></g></svg>