<svg xmlns="http://www.w3.org/2000/svg" width="20" height="20" viewBox="0 0 20 20"><path fill="#fff" d="M7.8 12.271l-4-1.601v1.354l4 1.601v-1.354zm0-4.155l-4-1.6V7.87l4 1.6V8.116zm10.761-6.944a1 1 0 0 0-.932-.101L10 4.123 2.371 1.071A1 1 0 0 0 1 2v12.8c0 .409.249.776.628.929l7.983 3.193s.164.053.194.059a.975.975 0 0 0 .389-.001c.03-.006.194-.06.194-.06l7.982-3.192A.999.999 0 0 0 19 14.8V2c0-.332-.165-.642-.439-.828zM9 16.954l-6.4-2.56V3.186L9 5.747v11.207zm8.4-2.559l-6.4 2.56V5.747l6.4-2.561v11.209zm-1.2-3.725l-4.001 1.601v1.354l4.001-1.601V10.67zm0-4.154l-4.001 1.6V9.47l4.001-1.6V6.516z"/></svg>