<svg xmlns="http://www.w3.org/2000/svg" width="20" height="20" viewBox="0 0 20 20"><path fill="#fff" d="M3.134 6.89c.934-.725 1.708-.226 2.741.97.117.134.273-.023.361-.1.088-.078 1.452-1.304 1.518-1.361.067-.059.147-.169.041-.292s-.494-.625-.743-.95c-1.808-2.365 4.946-3.969 3.908-3.994-.527-.014-2.646-.038-2.962-.005-1.283.136-2.894 1.335-3.705 1.893-1.06.729-1.457 1.152-1.522 1.211-.3.263-.048.867-.592 1.344-.575.504-.933.123-1.266.415-.166.146-.627.491-.76.608-.132.116-.156.313-.021.471 0 0 1.263 1.396 1.37 1.519s.391.227.568.071l.708-.622c.077-.068-.05-.863.356-1.178zm5.709.516c-.12-.139-.268-.142-.397-.028L7.011 8.629a.29.29 0 0 0-.026.4l8.294 9.438a.53.53 0 0 0 .752.053l.971-.812a.54.54 0 0 0 .051-.757l-8.21-9.545zm11.059-4.017c-.074-.494-.33-.39-.463-.18-.131.209-.721 1.101-.963 1.504-.24.402-.83 1.191-1.934.412-1.148-.812-.748-1.379-.549-1.76a41.51 41.51 0 0 1 .908-1.59c.088-.135-.016-.527-.371-.363-.357.165-2.523 1.026-2.824 2.26-.307 1.257.258 2.379-.85 3.494l-1.342 1.4 1.348 1.568 1.654-1.571c.395-.396 1.236-.781 1.998-.608 1.633.37 2.523-.244 3.061-1.257.482-.907.402-2.815.327-3.309zM2.74 17.051a.54.54 0 0 0 0 .759l.951.93c.208.209.538.121.746-.088l4.907-4.825-1.504-1.713-5.1 4.937z"/></svg>