<svg xmlns="http://www.w3.org/2000/svg" width="20" height="20" viewBox="0 0 20 20"><path fill="#fff" d="M19.2 4.293a7.559 7.559 0 0 1-2.169.595 3.78 3.78 0 0 0 1.66-2.088 7.563 7.563 0 0 1-2.396.916 3.77 3.77 0 0 0-2.756-1.192 3.775 3.775 0 0 0-3.677 4.634 10.712 10.712 0 0 1-7.78-3.944 3.773 3.773 0 0 0 1.167 5.04 3.762 3.762 0 0 1-1.71-.472v.047a3.78 3.78 0 0 0 3.028 3.702 3.786 3.786 0 0 1-1.705.065 3.777 3.777 0 0 0 3.526 2.621A7.57 7.57 0 0 1 .8 15.78a10.682 10.682 0 0 0 5.787 1.696c6.943 0 10.74-5.752 10.74-10.741 0-.163-.003-.326-.011-.488A7.676 7.676 0 0 0 19.2 4.293z"/></svg>