<svg width="616" height="388" xmlns="http://www.w3.org/2000/svg"><title>Layer 1</title><path d="M2.125 192.716c0-72.1 25.2-138.9 67.7-191h13c-44.3 51.2-70.3 118.1-70.3 191 0 61.6 13.9 127.6 36.5 193.6h-10.4c-22.6-66-36.5-132-36.5-193.6zm601.6 0c0-72.9-26.9-139.8-70.3-191h13c42.5 52.1 67.7 118.1 67.7 191 0 61.6-13.9 127.6-36.5 193.6h-10.4c22.6-66 36.5-132 36.5-193.6zm-462.7 3.4c0-92 74.7-166.7 167.5-166.7 92 0 167.5 74.7 167.5 166.7 0 92-74.7 166.7-167.5 166.7s-167.5-74.6-167.5-166.7zm324.7 0c0-85.9-70.3-156.3-158-156.3-86.8 0-158 70.3-158 156.3 0 86.8 70.3 157.1 158 157.1 87.6-.8 158-70.3 158-157.1z" fill="#FFF"/><path d="M308.525 79.816c65.1 0 117.2 52.1 117.2 117.2s-52.1 117.2-117.2 117.2-117.2-52.1-117.2-117.2c0-64.2 52.1-117.2 117.2-117.2z" fill="#FFF"/><path d="M184.425 197.016c0-68.6 55.6-124.1 124.1-124.1s124.1 55.6 124.1 124.1c0 68.6-55.6 124.1-124.1 124.1s-124.1-55.5-124.1-124.1zm234.4 0c0-60.8-49.5-111.1-111.1-111.1-60.8 0-111.1 49.5-111.1 111.1 0 60.8 49.5 111.1 111.1 111.1 61.6 0 111.1-50.3 111.1-111.1z" fill="#38BBBB"/><path d="M329.425 224.816c-4.3-.9-4.3-12.2-4.3-12.2s12.2-12.2 14.8-28.6c6.9 0 11.3-17.4 4.3-23.4 0-6.1 9.5-50.3-35.6-50.3s-36.5 43.3-35.7 50.2c-6.9 6.1-2.6 23.4 4.3 23.4 2.6 16.5 14.8 28.6 14.8 28.6s0 11.3-4.3 12.2c-13 1.7-63.4 24.3-63.4 48.6 31.3 58.2 144.1 50.3 168.4 0 0-24.2-50.3-46.8-63.3-48.5z" fill="#38BBBB"/></svg>