<svg xmlns="http://www.w3.org/2000/svg" width="20" height="20" viewBox="0 0 20 20"><path fill="#fff" d="M10 5.833V2.5H1.667v15h16.667V5.833h-8.333zm-5 10H3.333v-1.667H5v1.667zM5 12.5H3.333v-1.667H5V12.5zm0-3.333H3.333V7.5H5v1.667zm0-3.334H3.333V4.166H5v1.667zm3.333 10H6.666v-1.667h1.667v1.667zm0-3.333H6.666v-1.667h1.667V12.5zm0-3.333H6.666V7.5h1.667v1.667zm0-3.334H6.666V4.166h1.667v1.667zm8.334 10H10v-1.667h1.667v-1.667H10v-1.667h1.667V9.165H10V7.498h6.667v8.333zM15 9.167h-1.667v1.667H15V9.167zm0 3.333h-1.667v1.667H15V12.5z"/></svg>