<svg xmlns="http://www.w3.org/2000/svg" width="1429" height="456" viewBox="0 0 1317 420" shape-rendering="geometricPrecision" text-rendering="geometricPrecision" image-rendering="optimizeQuality" fill-rule="evenodd" clip-rule="evenodd"><defs><style>.fil0{fill:#252731}.fil1,.fil2{fill:#fff}.fil2{fill-rule:nonzero}</style></defs><g id="Layer_x0020_1"><g id="_745608448"><path class="fil0" d="M0 0v420h1317V0z"/><path class="fil1" d="M398 125v-19h-23v19h23zm-31 0v-19h-23v19h23zm-188 47v-19h22c6 0 8 2 8 8v3c0 5-2 8-8 8h-22zm0 39v-20h26c6 0 9 3 9 9v3c0 5-3 8-9 8h-26zm296-7v-44c0-6 2-9 8-9h23c5 0 8 3 8 9v44c0 6-3 8-8 8h-23c-6 0-8-2-8-8zm-67 26v-19h-50v-20h39v-20h-39v-18h50v-20h-75v97h75zm-176-6c4-4 6-11 6-20 0-4-1-7-2-10s-2-5-3-7c-2-2-3-4-5-5l-6-3c3-1 6-4 8-7 3-4 4-8 4-14 0-8-2-14-6-18-5-5-11-7-20-7h-54v97h58c9 0 15-2 20-6zm91 5v-18h-17c-3 1-5 1-8 1h-20c-2 0-4-1-5-2s-2-3-2-5v-44c0-6 3-8 9-8h43v-20h-49c-9 0-16 2-20 7-5 4-7 11-7 21v44c0 9 2 15 6 19 5 5 11 7 20 7h32c6 0 12-1 18-2zm209-4c4-4 6-11 6-21v-44c0-10-2-17-6-21-5-5-11-7-21-7h-34c-9 0-16 2-20 7-4 4-6 11-6 21v44c0 10 2 17 6 21s11 7 20 7h34c10 0 16-3 21-7zM98 281V85h445l63 98-63 98H98z"/><path class="fil2" d="M1006 183l55 98h-54l-43-79h-26v79h-51V88h51v76h26l28-53c4-8 9-14 15-19s14-7 24-7h10c3 1 6 1 8 1 3 1 5 1 8 2v37h-11c-3 0-6 1-8 3-2 1-4 3-5 5l-27 50zm187-98h55l-62 99 64 97h-56l-39-61-38 61h-56l64-97-63-99h56l37 63zM586 281l61-98h1l-1-1-61-98h53l49 79h20V84h50v79h19l28-52c4-8 9-14 15-19s14-7 23-7h9c3 1 6 1 8 1 3 1 6 1 8 2v37h-11c-3 0-5 1-7 3-3 1-4 3-5 5l-27 50 54 98h-52l-43-79h-19v79h-50v-79h-20l-49 79h-53zm-454 37h14l-15 40h-15l-15-40h14l8 27zm35 12c0 1 0 2 1 2 0 1 1 1 2 1h14c3 0 6 1 8 3s3 5 3 8v3c0 4-1 6-3 8s-5 3-8 3h-20c-3 0-6 0-9-1v-10c2 1 5 1 8 1h16c1 0 1 0 2-1l1-1v-3h-17c-3 0-6-1-8-3s-3-5-3-8v-3c0-3 1-6 3-8s5-3 8-3h26v9h-21c-1 0-2 1-2 1-1 1-1 1-1 2zm39-1c0-4 1-7 4-9 2-2 5-3 9-3h15c4 0 7 1 9 3s3 5 3 9v14h-26v5c1 0 2 1 2 1h15c2-1 5-1 7-1v9c-3 1-6 1-9 1h-17c-4 0-6-1-8-3-3-2-4-4-4-8v-18zm17-3c-2 0-3 1-3 3v5h13v-5c0-2-1-3-3-3h-7zm64 4c0-2-1-3-3-3h-9c-2 0-3 1-3 3v15c0 2 1 3 3 3h9c2 0 3-1 3-3v-15zm14 16c0 4-1 7-3 9-3 3-6 4-9 4h-18c-4 0-7-1-9-4-2-2-3-5-3-9v-17c0-4 1-7 3-9s5-3 9-3h18c3 0 6 1 9 3 2 2 3 5 3 9v17zm26-3c0 1 0 2 1 2 0 1 1 1 2 1h8c1 0 2 0 3-1v-17h-11c-2 0-3 1-3 3v12zm-13-13c0-4 1-7 3-9s5-3 9-3h28v42c0 3-1 6-3 8s-5 3-8 3h-18c-3 0-6-1-9-1v-10c3 0 5 1 8 1h14c1 0 1 0 2-1l1-1v-4c-2 0-3 0-5 1h-11c-3 0-6-1-8-3s-3-5-3-8v-15zm68 12v16h-14v-53h14v27h6l8-14h14l-11 19 11 21h-14l-9-16zm61-15h-6c-1 1-2 1-3 1v30h-13v-53h13v13h5c1-1 2-1 4-1h8c3 0 6 1 8 3s3 5 3 8v30h-13v-28c0-1-1-2-1-2-1-1-1-1-2-1h-3zm31 20h14v11h-14zm39-29v5c2-1 3-2 4-3s3-2 5-2c1-1 3-1 5-1h4v12h-11c-1 0-2 1-3 1s-2 1-3 1v27h-13v-40h12zm59 40l-1-4c-1 1-3 2-4 2-1 1-3 1-4 2-2 0-4 1-5 1h-4c-3 0-6-1-8-3-2-3-3-5-3-9v-29h13v27c0 1 0 1 1 2 0 0 1 1 2 1h2c1 0 2 0 3-1h3c1 0 2-1 3-1v-28h14v40h-12z"/></g></g></svg>