<svg xmlns="http://www.w3.org/2000/svg" width="1250" height="1199" viewBox="0 0 1339 1285" shape-rendering="geometricPrecision" text-rendering="geometricPrecision" image-rendering="optimizeQuality" fill-rule="evenodd" clip-rule="evenodd"><defs><style>.fil0{fill:#fff}</style></defs><g id="Слой_x0020_1"><path id="path24_3_" class="fil0" d="M901 636c-8-148-118-237-250-237h-5c-153 0-238 121-238 258 0 153 102 250 237 250 150 0 249-110 256-241v-30zM646 267c103 0 199 45 270 116 0-34 23-60 54-60h8c50 0 60 47 60 62l1 529c-4 35 35 53 57 30 85-87 187-448-53-658-223-195-522-163-681-53C193 350 85 608 190 851c114 264 442 343 637 264 99-40 145 94 42 138-155 65-586 59-787-290C-55 727-47 313 314 98 590-66 954-21 1173 209c230 239 216 688-8 862-101 80-252 3-251-113l-1-38c-70 70-164 111-267 111-202 0-380-178-380-380 0-204 178-384 380-384zm0 0z"/></g></svg>