<svg xmlns="http://www.w3.org/2000/svg" width="20" height="20" viewBox="0 0 17 24"><path fill="#fff" d="M8.571 12.147q-2.518 0-4.299-1.781T2.491 6.08q0-2.518 1.781-4.299T8.571 0t4.299 1.781 1.781 4.299q0 2.504-1.781 4.286t-4.299 1.781zm0-9.067q-1.232 0-2.109.877T5.585 6.08q0 1.232.877 2.109t2.109.877 2.109-.877.877-2.109q0-1.246-.877-2.123T8.571 3.08zm7.005 9.804q.174.362.201.663t-.06.542-.355.516-.569.496-.824.556q-1.54.978-4.219 1.259l.978.964 3.576 3.576q.402.415.402.991t-.402.978l-.161.174q-.415.402-.991.402t-.991-.402q-.897-.911-3.576-3.589l-3.576 3.589q-.415.402-.991.402t-.978-.402l-.161-.174q-.415-.402-.415-.978t.415-.991l4.54-4.54q-2.719-.281-4.246-1.259-.522-.335-.824-.556t-.569-.496-.355-.516-.06-.542.201-.663q.134-.268.375-.469t.562-.295.75.027.871.469q.067.054.201.147t.576.328.924.408 1.232.321 1.513.147q1.219 0 2.33-.342t1.607-.676l.509-.335q.442-.348.871-.469t.75-.027.563.295.375.469z"/></svg>