<svg xmlns="http://www.w3.org/2000/svg" width="20" height="20" viewBox="0 0 20 20"><path fill="#fff" d="M3.302 12.238c.464 1.881 1.054 2.701 3.022 3.562 1.969.86 2.904 1.8 3.676 1.8s1.647-.822 3.616-1.684c1.969-.859 1.444-1.123 1.908-3.002L10 15.6l-6.698-3.362zm16.209-4.902l-8.325-4.662c-.652-.365-1.719-.365-2.371 0L.489 7.336c-.652.365-.652.963 0 1.328l8.325 4.662c.652.365 1.719.365 2.371 0l5.382-3.014-5.836-1.367a3.026 3.026 0 0 1-.731.087c-1.051 0-1.903-.507-1.903-1.132S8.949 6.767 10 6.767c.816 0 1.511.307 1.781.736l6.181 2.028 1.549-.867c.652-.365.652-.963 0-1.328zm-2.544 8.836c-.063.383 1.283 1.016 1.411-.109.579-5.071-.416-6.531-.416-6.531l-1.395.781c0-.001 1.183 1.125.4 5.859z"/></svg>