<svg xmlns="http://www.w3.org/2000/svg" width="20" height="20" viewBox="0 0 77 162" shape-rendering="geometricPrecision" text-rendering="geometricPrecision" image-rendering="optimizeQuality" fill-rule="evenodd" clip-rule="evenodd"><defs><style>.fil0{fill:#fff}</style></defs><g id="Слой_x0020_1"><path id="path9" class="fil0" d="M75 0H50C26 0 6 18 6 54c0 21 10 37 27 45L0 158c-1 2 0 4 2 4h15c2 0 3-1 3-2l30-58h11v58c0 1 0 2 1 2h13c2 0 2-1 2-2V2c0-1-1-2-2-2zM61 88h-9c-15 0-28-10-28-36 0-27 13-38 26-38h11v74z"/></g></svg>