<?xml version="1.0" encoding="UTF-8"?>
<!DOCTYPE svg PUBLIC "-//W3C//DTD SVG 1.1//EN" "http://www.w3.org/Graphics/SVG/1.1/DTD/svg11.dtd">
<!-- Creator: CorelDRAW X7 -->
<svg xmlns="http://www.w3.org/2000/svg" xml:space="preserve" width="1429px" height="456px" version="1.1" style="shape-rendering:geometricPrecision; text-rendering:geometricPrecision; image-rendering:optimizeQuality; fill-rule:evenodd; clip-rule:evenodd"
viewBox="0 0 1317 420"
 xmlns:xlink="http://www.w3.org/1999/xlink">
 <defs>
  <style type="text/css">
   <![CDATA[
    .fil0 {fill:#252731}
    .fil1 {fill:white}
    .fil2 {fill:white;fill-rule:nonzero}
   ]]>
  </style>
 </defs>
 <g id="Layer_x0020_1">
  <metadata id="CorelCorpID_0Corel-Layer"/>
  <g id="_745608448">
   <polygon class="fil0" points="0,0 0,420 1317,420 1317,0 "/>
   <path class="fil1" d="M398 125l0 -19 -23 0 0 19 23 0zm-31 0l0 0 0 -19 -23 0 0 19 23 0zm-188 47l0 0 0 -19 22 0c6,0 8,2 8,8l0 3c0,5 -2,8 -8,8l-22 0zm0 39l0 0 0 -20 26 0c6,0 9,3 9,9l0 3c0,5 -3,8 -9,8l-26 0zm296 -7l0 0 0 -44c0,-6 2,-9 8,-9l23 0c5,0 8,3 8,9l0 44c0,6 -3,8 -8,8l-23 0c-6,0 -8,-2 -8,-8zm-67 26l0 0 0 -19 -50 0 0 -20 39 0 0 -20 -39 0 0 -18 50 0 0 -20 -75 0 0 97 75 0zm-176 -6l0 0c4,-4 6,-11 6,-20 0,-4 -1,-7 -2,-10 -1,-3 -2,-5 -3,-7 -2,-2 -3,-4 -5,-5 -2,-1 -4,-2 -6,-3 3,-1 6,-4 8,-7 3,-4 4,-8 4,-14 0,-8 -2,-14 -6,-18 -5,-5 -11,-7 -20,-7l-54 0 0 97 58 0c9,0 15,-2 20,-6zm91 5l0 0 0 -18 -17 0c-3,1 -5,1 -8,1l-20 0c-2,0 -4,-1 -5,-2 -1,-1 -2,-3 -2,-5l0 -44c0,-6 3,-8 9,-8l43 0 0 -20 -49 0c-9,0 -16,2 -20,7 -5,4 -7,11 -7,21l0 44c0,9 2,15 6,19 5,5 11,7 20,7l32 0c6,0 12,-1 18,-2zm209 -4l0 0c4,-4 6,-11 6,-21l0 -44c0,-10 -2,-17 -6,-21 -5,-5 -11,-7 -21,-7l-34 0c-9,0 -16,2 -20,7 -4,4 -6,11 -6,21l0 44c0,10 2,17 6,21 4,4 11,7 20,7l34 0c10,0 16,-3 21,-7zm-434 56l0 0 0 -196 445 0 63 98 -63 98 -445 0z"/>
   <path class="fil2" d="M1006 183l55 98 -54 0 -43 -79 -26 0 0 79 -51 0 0 -193 51 0 0 76 26 0 28 -53c4,-8 9,-14 15,-19 6,-5 14,-7 24,-7 4,0 7,0 10,0 3,1 6,1 8,1 3,1 5,1 8,2l0 37 -11 0c-3,0 -6,1 -8,3 -2,1 -4,3 -5,5l-27 50z"/>
   <polygon class="fil2" points="1193,85 1248,85 1186,184 1250,281 1194,281 1155,220 1117,281 1061,281 1125,184 1062,85 1118,85 1155,148 "/>
   <path class="fil2" d="M586 281l61 -98 1 0 -1 -1 -61 -98 53 0 49 79 20 0 0 -79 50 0 0 79 19 0 0 0 28 -52c4,-8 9,-14 15,-19 6,-5 14,-7 23,-7 3,0 7,0 9,0 3,1 6,1 8,1 3,1 6,1 8,2l0 37 -11 0c-3,0 -5,1 -7,3 -3,1 -4,3 -5,5l-27 50 54 98 -52 0 -43 -79 -19 0 0 79 -50 0 0 -79 -20 0 -49 79 -53 0z"/>
   <g>
    <polygon class="fil2" points="132,318 146,318 131,358 116,358 101,318 115,318 123,345 "/>
    <path class="fil2" d="M167 330c0,1 0,2 1,2 0,1 1,1 2,1l14 0c3,0 6,1 8,3 2,2 3,5 3,8l0 3c0,4 -1,6 -3,8 -2,2 -5,3 -8,3 -4,0 -7,0 -10,0 -4,0 -7,0 -10,0 -3,0 -6,0 -9,-1l0 -10c2,1 5,1 8,1 2,0 5,0 8,0 3,0 5,0 8,0 1,0 1,0 2,-1 0,0 1,-1 1,-1l0 -3 -17 0c-3,0 -6,-1 -8,-3 -2,-2 -3,-5 -3,-8l0 -3c0,-3 1,-6 3,-8 2,-2 5,-3 8,-3l26 0 0 9 -21 0c-1,0 -2,1 -2,1 -1,1 -1,1 -1,2z"/>
    <path class="fil2" d="M206 329c0,-4 1,-7 4,-9 2,-2 5,-3 9,-3l15 0c4,0 7,1 9,3 2,2 3,5 3,9l0 14 -26 0 0 3c0,1 0,1 0,2 1,0 2,1 2,1 3,0 5,0 7,0 3,0 5,0 8,0 2,-1 5,-1 7,-1l0 9c-3,1 -6,1 -9,1 -2,0 -5,0 -8,0 -3,0 -6,0 -9,0 -4,0 -6,-1 -8,-3 -3,-2 -4,-4 -4,-8l0 -18zm17 -3l0 0c-2,0 -3,1 -3,3l0 5 13 0 0 -5c0,-2 -1,-3 -3,-3l-7 0z"/>
    <path class="fil2" d="M287 330c0,-2 -1,-3 -3,-3l-9 0c-2,0 -3,1 -3,3l0 15c0,2 1,3 3,3l9 0c2,0 3,-1 3,-3l0 -15zm14 16l0 0c0,4 -1,7 -3,9 -3,3 -6,4 -9,4l-18 0c-4,0 -7,-1 -9,-4 -2,-2 -3,-5 -3,-9l0 -17c0,-4 1,-7 3,-9 2,-2 5,-3 9,-3l18 0c3,0 6,1 9,3 2,2 3,5 3,9l0 17z"/>
    <path class="fil2" d="M327 343c0,1 0,2 1,2 0,1 1,1 2,1l2 0c1,0 2,0 3,0 1,0 2,0 3,0 1,0 2,0 3,-1l0 -17 -11 0c-2,0 -3,1 -3,3l0 12zm-13 -13l0 0c0,-4 1,-7 3,-9 2,-2 5,-3 9,-3l28 0 0 42c0,3 -1,6 -3,8 -2,2 -5,3 -8,3 -3,0 -6,0 -9,0 -3,0 -6,0 -9,0 -3,0 -6,-1 -9,-1l0 -10c3,0 5,1 8,1 2,0 4,0 7,0 2,0 5,0 7,0 1,0 1,0 2,-1 0,0 1,-1 1,-1l0 -4c-2,0 -3,0 -5,1 -1,0 -3,0 -4,0 -2,0 -3,0 -4,0l-3 0c-3,0 -6,-1 -8,-3 -2,-2 -3,-5 -3,-8l0 -15z"/>
    <polygon class="fil2" points="382,342 382,358 368,358 368,305 382,305 382,332 388,332 396,318 410,318 399,337 410,358 396,358 387,342 "/>
    <path class="fil2" d="M443 327c-1,0 -2,0 -3,0 -1,0 -2,0 -3,0 -1,1 -2,1 -3,1l0 30 -13 0 0 -53 13 0 0 13c2,0 3,0 5,0 1,-1 2,-1 4,-1 1,0 3,0 4,0l4 0c3,0 6,1 8,3 2,2 3,5 3,8l0 30 -13 0 0 -28c0,-1 -1,-2 -1,-2 -1,-1 -1,-1 -2,-1l-3 0z"/>
    <polygon class="fil2" points="474,347 488,347 488,358 474,358 "/>
    <path class="fil2" d="M513 318l0 5c2,-1 3,-2 4,-3 1,-1 3,-2 5,-2 1,-1 3,-1 5,-1l4 0 0 12 -7 0c-1,0 -3,0 -4,0 -1,0 -2,1 -3,1 -1,0 -2,1 -3,1l0 27 -13 0 0 -40 12 0z"/>
    <path class="fil2" d="M572 358l-1 -4c-1,1 -3,2 -4,2 -1,1 -3,1 -4,2 -2,0 -4,1 -5,1l-4 0c-3,0 -6,-1 -8,-3 -2,-3 -3,-5 -3,-9l0 -29 13 0 0 27c0,1 0,1 1,2 0,0 1,1 2,1l2 0c1,0 2,0 3,-1 1,0 2,0 3,0 1,0 2,-1 3,-1l0 -28 14 0 0 40 -12 0z"/>
   </g>
  </g>
 </g>
</svg>
