<?xml version="1.0" encoding="utf-8"?>
<!-- Generated by IcoMoon.io -->
<!DOCTYPE svg PUBLIC "-//W3C//DTD SVG 1.1//EN" "http://www.w3.org/Graphics/SVG/1.1/DTD/svg11.dtd">
<svg version="1.1" xmlns="http://www.w3.org/2000/svg" xmlns:xlink="http://www.w3.org/1999/xlink" width="20" height="20" viewBox="0 0 20 20">
<path fill="#ffffff" d="M10 5.833v-3.333h-8.333v15h16.667v-11.667h-8.333zM5 15.833h-1.667v-1.667h1.667v1.667zM5 12.5h-1.667v-1.667h1.667v1.667zM5 9.167h-1.667v-1.667h1.667v1.667zM5 5.833h-1.667v-1.667h1.667v1.667zM8.333 15.833h-1.667v-1.667h1.667v1.667zM8.333 12.5h-1.667v-1.667h1.667v1.667zM8.333 9.167h-1.667v-1.667h1.667v1.667zM8.333 5.833h-1.667v-1.667h1.667v1.667zM16.667 15.833h-6.667v-1.667h1.667v-1.667h-1.667v-1.667h1.667v-1.667h-1.667v-1.667h6.667v8.333zM15 9.167h-1.667v1.667h1.667v-1.667zM15 12.5h-1.667v1.667h1.667v-1.667z"></path>
</svg>
