<?xml version="1.0" encoding="UTF-8"?>
<!DOCTYPE svg PUBLIC "-//W3C//DTD SVG 1.1//EN" "http://www.w3.org/Graphics/SVG/1.1/DTD/svg11.dtd">
<!-- Creator: CorelDRAW X7 -->
<svg xmlns="http://www.w3.org/2000/svg" xml:space="preserve" width="1429px" height="456px" version="1.1" style="shape-rendering:geometricPrecision; text-rendering:geometricPrecision; image-rendering:optimizeQuality; fill-rule:evenodd; clip-rule:evenodd"
viewBox="0 0 1348 430"
 xmlns:xlink="http://www.w3.org/1999/xlink">
 <defs>
  <style type="text/css">
   <![CDATA[
    .fil0 {fill:#D8193D}
    .fil1 {fill:white}
    .fil2 {fill:white;fill-rule:nonzero}
   ]]>
  </style>
 </defs>
 <g id="Layer_x0020_1">
  <metadata id="CorelCorpID_0Corel-Layer"/>
  <g id="_744894288">
   <polygon class="fil0" points="0,0 0,430 1348,430 1348,0 "/>
   <path class="fil1" d="M408 128l0 -20 -24 0 0 20 24 0zm-32 0l0 0 0 -20 -24 0 0 20 24 0zm-193 48l0 0 0 -20 23 0c6,0 9,3 9,9l0 3c0,5 -3,8 -9,8l-23 0zm0 40l0 0 0 -20 27 0c6,0 9,3 9,9l0 2c0,6 -3,9 -9,9l-27 0zm303 -7l0 0 0 -46c0,-5 3,-8 8,-8l24 0c5,0 8,3 8,8l0 46c0,6 -3,8 -8,8l-24 0c-5,0 -8,-2 -8,-8zm-68 27l0 0 0 -20 -52 0 0 -21 41 0 0 -19 -41 0 0 -20 52 0 0 -19 -77 0 0 99 77 0zm-181 -7l0 0c4,-4 6,-11 6,-20 0,-4 0,-7 -1,-10 -1,-3 -2,-6 -4,-8 -1,-2 -3,-4 -5,-5 -2,-1 -4,-2 -6,-2 3,-2 6,-4 9,-8 2,-4 3,-8 3,-14 0,-9 -2,-15 -6,-19 -4,-4 -11,-6 -20,-6l-55 0 0 99 59 0c9,0 16,-2 20,-7zm93 5l0 0 0 -18 -17 0c-2,1 -5,1 -7,1l-21 0c-2,0 -4,-1 -5,-2 -1,-1 -2,-3 -2,-5l0 -45c0,-6 3,-9 8,-9l44 0 0 -19 -49 0c-10,0 -17,2 -21,6 -5,5 -7,12 -7,22l0 45c0,9 2,15 6,20 5,4 11,6 20,6l33 0c6,0 12,0 18,-2zm214 -4l0 0c5,-4 7,-11 7,-21l0 -46c0,-9 -2,-17 -7,-21 -4,-5 -11,-7 -21,-7l-34 0c-10,0 -17,2 -21,7 -4,4 -7,12 -7,21l0 46c0,10 3,17 7,21 4,5 11,7 21,7l34 0c10,0 17,-2 21,-7zm-444 57l0 0 0 -200 456 0 65 100 -65 100 -456 0z"/>
   <path class="fil2" d="M1030 188l57 100 -55 0 -45 -81 -26 0 0 81 -52 0 0 -198 52 0 0 78 26 0 29 -54c4,-8 9,-15 15,-20 7,-5 15,-7 25,-7 3,0 7,0 10,0 3,1 6,1 8,1 3,1 6,1 8,2l0 38 -11 0c-3,0 -6,1 -8,3 -2,1 -4,3 -5,5l-28 52z"/>
   <polygon class="fil2" points="1222,87 1278,87 1214,189 1280,288 1223,288 1183,225 1143,288 1087,288 1152,189 1088,87 1145,87 1183,152 "/>
   <path class="fil2" d="M600 288l62 -100 1 -1 -1 -1 -62 -100 54 0 51 81 20 0 0 -81 51 0 0 81 20 0 0 0 28 -53c4,-8 9,-15 15,-20 6,-5 15,-7 25,-7 3,0 6,0 9,0 3,1 6,1 8,1 3,1 6,1 8,2l0 38 -11 0c-3,0 -6,1 -8,3 -2,1 -4,3 -5,5l-27 52 55 100 -54 0 -43 -81 -20 0 0 81 -51 0 0 -81 -20 0 -51 81 -54 0z"/>
   <g>
    <polygon class="fil2" points="135,325 150,325 134,366 118,366 103,325 117,325 126,353 "/>
    <path class="fil2" d="M171 338c0,1 0,1 1,2 0,0 1,1 2,1l14 0c3,0 6,1 8,3 2,2 3,5 3,8l0 3c0,4 -1,7 -3,9 -2,2 -5,3 -8,3 -4,0 -7,0 -10,0 -4,0 -7,0 -10,-1 -3,0 -7,0 -10,0l0 -11c3,1 6,1 9,1 2,0 5,0 8,0 3,0 5,0 8,0 1,0 2,0 2,0 1,-1 1,-2 1,-2l0 -3 -17 0c-3,0 -6,-1 -8,-3 -3,-2 -4,-5 -4,-9l0 -2c0,-4 1,-7 4,-9 2,-2 5,-3 8,-3l27 0 0 10 -22 0c-1,0 -2,0 -2,1 -1,0 -1,1 -1,2z"/>
    <path class="fil2" d="M211 337c0,-4 1,-7 3,-10 3,-2 6,-3 10,-3l15 0c4,0 7,1 9,4 3,2 4,5 4,9l0 14 -27 0 0 3c0,1 0,1 1,2 0,0 1,1 1,1 3,0 5,0 8,0 2,0 5,0 7,0 3,-1 5,-1 8,-1l0 9c-3,1 -6,1 -9,1 -3,1 -6,1 -9,1 -3,0 -6,0 -9,0 -4,0 -7,-1 -9,-3 -2,-2 -3,-5 -3,-9l0 -18zm17 -3l0 0c-2,0 -3,1 -3,3l0 4 13 0 0 -4c0,-2 -1,-3 -3,-3l-7 0z"/>
    <path class="fil2" d="M294 338c0,-2 -1,-3 -3,-3l-9 0c-2,0 -3,1 -3,3l0 15c0,2 1,4 3,4l9 0c2,0 3,-2 3,-4l0 -15zm14 17l0 0c0,3 -1,7 -4,9 -2,2 -5,3 -9,3l-18 0c-4,0 -7,-1 -9,-3 -2,-2 -3,-6 -3,-9l0 -18c0,-4 1,-7 3,-10 2,-2 5,-3 9,-3l18 0c4,0 7,1 9,3 3,3 4,6 4,10l0 18z"/>
    <path class="fil2" d="M335 351c0,1 0,2 0,2 1,1 2,1 2,1l2 0c2,0 3,0 4,0 1,0 2,0 3,0 1,0 2,0 3,-1l0 -18 -11 0c-2,0 -3,2 -3,4l0 12zm-14 -14l0 0c0,-3 1,-7 3,-9 2,-2 6,-3 9,-3l29 0 0 43c0,4 -1,7 -3,9 -2,2 -5,3 -8,3 -3,0 -6,0 -10,0 -3,0 -6,0 -8,-1 -4,0 -7,0 -10,0l0 -10c3,0 6,0 8,1 3,0 5,0 8,0 2,0 5,0 7,0 1,0 1,-1 2,-1 0,-1 1,-1 1,-2l0 -4c-2,0 -3,1 -5,1 -1,0 -3,0 -4,0 -2,1 -3,1 -5,1l-2 0c-4,0 -7,-1 -9,-3 -2,-3 -3,-5 -3,-9l0 -16z"/>
    <polygon class="fil2" points="391,350 391,366 377,366 377,312 391,312 391,339 397,339 406,325 420,325 408,345 420,366 406,366 397,350 "/>
    <path class="fil2" d="M454 335c-1,0 -2,0 -3,0 -2,0 -3,0 -3,0 -2,0 -3,0 -4,0l0 31 -13 0 0 -54 13 0 0 14c2,0 4,-1 5,-1 1,0 3,0 4,-1 2,0 3,0 5,0l3 0c4,0 7,1 9,3 2,3 3,5 3,9l0 30 -14 0 0 -28c0,-1 0,-2 -1,-2 0,-1 -1,-1 -1,-1l-3 0z"/>
    <polygon class="fil2" points="485,355 499,355 499,366 485,366 "/>
    <path class="fil2" d="M525 325l0 5c2,-1 3,-2 4,-3 2,-1 3,-1 5,-2 2,0 3,-1 6,-1l3 0 0 12 -7 0c-1,0 -2,0 -3,1 -2,0 -3,0 -4,1 -1,0 -2,1 -3,1l0 27 -13 0 0 -41 12 0z"/>
    <path class="fil2" d="M585 366l0 -4c-2,1 -3,2 -5,3 -1,0 -3,1 -4,1 -2,1 -4,1 -5,1l-4 0c-3,0 -6,-1 -8,-3 -2,-2 -4,-5 -4,-9l0 -30 14 0 0 28c0,1 0,1 1,2 0,0 1,1 2,1l3 0c1,0 2,0 3,0 1,-1 2,-1 3,-1 1,0 2,0 3,-1l0 -29 14 0 0 41 -13 0z"/>
   </g>
  </g>
 </g>
</svg>
