<?xml version="1.0" encoding="UTF-8"?>
<!DOCTYPE svg PUBLIC "-//W3C//DTD SVG 1.1//EN" "http://www.w3.org/Graphics/SVG/1.1/DTD/svg11.dtd">
<svg xmlns="http://www.w3.org/2000/svg" xml:space="preserve" width="1250px" height="1199px" version="1.1" style="shape-rendering:geometricPrecision; text-rendering:geometricPrecision; image-rendering:optimizeQuality; fill-rule:evenodd; clip-rule:evenodd"
viewBox="0 0 1339 1285"
 xmlns:xlink="http://www.w3.org/1999/xlink">
 <defs>
  <style type="text/css">
   <![CDATA[
    .fil0 {fill:white}
   ]]>
  </style>
 </defs>
 <g id="Слой_x0020_1">
  <metadata id="CorelCorpID_0Corel-Layer"/>
  <g>
   <path id="path24_3_" class="fil0" d="M901 636c-8,-148 -118,-237 -250,-237l-5 0c-153,0 -238,121 -238,258 0,153 102,250 237,250 150,0 249,-110 256,-241l0 -30 0 0zm-255 -369c103,0 199,45 270,116l0 0c0,-34 23,-60 54,-60l8 0c50,0 60,47 60,62l1 529c-4,35 35,53 57,30 85,-87 187,-448 -53,-658 -223,-195 -522,-163 -681,-53 -169,117 -277,375 -172,618 114,264 442,343 637,264 99,-40 145,94 42,138 -155,65 -586,59 -787,-290 -137,-236 -129,-650 232,-865 276,-164 640,-119 859,111 230,239 216,688 -8,862 -101,80 -252,3 -251,-113l-1 -38c-70,70 -164,111 -267,111 -202,0 -380,-178 -380,-380 0,-204 178,-384 380,-384l0 0 0 0zm0 0l0 0 0 0z"/>
  </g>
 </g>
</svg>
