<?xml version="1.0" encoding="utf-8"?>
<!DOCTYPE svg PUBLIC "-//W3C//DTD SVG 1.1//EN" "http://www.w3.org/Graphics/SVG/1.1/DTD/svg11.dtd">
<svg version="1.1" xmlns="http://www.w3.org/2000/svg" xmlns:xlink="http://www.w3.org/1999/xlink" width="20" height="20" viewBox="0 0 17 24">
<path fill="#fff" d="M8.571 12.147q-2.518 0-4.299-1.781t-1.781-4.286q0-2.518 1.781-4.299t4.299-1.781 4.299 1.781 1.781 4.299q0 2.504-1.781 4.286t-4.299 1.781zM8.571 3.080q-1.232 0-2.109 0.877t-0.877 2.123q0 1.232 0.877 2.109t2.109 0.877 2.109-0.877 0.877-2.109q0-1.246-0.877-2.123t-2.109-0.877zM15.576 12.884q0.174 0.362 0.201 0.663t-0.060 0.542-0.355 0.516-0.569 0.496-0.824 0.556q-1.54 0.978-4.219 1.259l0.978 0.964 3.576 3.576q0.402 0.415 0.402 0.991t-0.402 0.978l-0.161 0.174q-0.415 0.402-0.991 0.402t-0.991-0.402q-0.897-0.911-3.576-3.589l-3.576 3.589q-0.415 0.402-0.991 0.402t-0.978-0.402l-0.161-0.174q-0.415-0.402-0.415-0.978t0.415-0.991l4.54-4.54q-2.719-0.281-4.246-1.259-0.522-0.335-0.824-0.556t-0.569-0.496-0.355-0.516-0.060-0.542 0.201-0.663q0.134-0.268 0.375-0.469t0.562-0.295 0.75 0.027 0.871 0.469q0.067 0.054 0.201 0.147t0.576 0.328 0.924 0.408 1.232 0.321 1.513 0.147q1.219 0 2.33-0.342t1.607-0.676l0.509-0.335q0.442-0.348 0.871-0.469t0.75-0.027 0.563 0.295 0.375 0.469z"></path>
</svg>
