<?xml version="1.0" encoding="utf-8"?>
<!-- Generated by IcoMoon.io -->
<!DOCTYPE svg PUBLIC "-//W3C//DTD SVG 1.1//EN" "http://www.w3.org/Graphics/SVG/1.1/DTD/svg11.dtd">
<svg version="1.1" xmlns="http://www.w3.org/2000/svg" xmlns:xlink="http://www.w3.org/1999/xlink" width="18" height="18" viewBox="0 0 18 18">
<path fill="#818491" d="M9 4.5v2.25l3-3-3-3v2.25c-3.315 0-6 2.685-6 6 0 1.178 0.345 2.269 0.93 3.195l1.095-1.095c-0.334-0.626-0.525-1.339-0.525-2.1 0-2.486 2.014-4.5 4.5-4.5zM14.070 5.805l-1.095 1.095c0.334 0.626 0.525 1.339 0.525 2.1 0 2.486-2.014 4.5-4.5 4.5v-2.25l-3 3 3 3v-2.25c3.315 0 6-2.685 6-6 0-1.178-0.345-2.269-0.93-3.195z"></path>
</svg>
