<?xml version="1.0" encoding="utf-8"?>
<!DOCTYPE svg PUBLIC "-//W3C//DTD SVG 1.1//EN" "http://www.w3.org/Graphics/SVG/1.1/DTD/svg11.dtd">
<svg version="1.1" id="Слой_1" xmlns="http://www.w3.org/2000/svg" xmlns:xlink="http://www.w3.org/1999/xlink" x="0px" y="0px"
	 viewBox="318.6 353.8 14.2 14.2" enable-background="new 318.6 353.8 14.2 14.2" xml:space="preserve">
<g id="Document" transform="scale(1 -1)">
	<g id="Spread" transform="translate(0 -841.891)">
		<g id="Layer_1">
			<path marker-end="none" marker-start="none" fill="#FFFFFF" d="M332.5,476l-3.4,3.4c0.5,0.8,0.8,1.8,0.8,2.9
				c0,3.1-2.7,5.8-5.8,5.8c-3.1,0-5.6-2.5-5.6-5.6s2.7-5.8,5.8-5.8c1,0,2,0.3,2.8,0.8l3.4-3.4c0.3-0.3,0.9-0.3,1.2,0l0.8,0.8
				C333,475.3,332.8,475.7,332.5,476 M320.3,482.5c0,2.1,1.7,3.9,3.9,3.9c2.1,0,4-1.9,4-4c0-2.1-1.7-3.9-3.9-3.9
				S320.3,480.4,320.3,482.5z"/>
		</g>
	</g>
</g>
</svg>
