<?xml version="1.0"?>
<svg width="616" height="387.99999999999994" xmlns="http://www.w3.org/2000/svg" xmlns:svg="http://www.w3.org/2000/svg">
 <g>
  <title>Layer 1</title>
  <g transform="translate(2,-205) scale(1,-1) " id="Document">
   <g id="Spread">
    <g id="Layer_1">
     <path id="svg_1" d="m0.125,-397.716c0,72.09998 25.2,138.89996 67.7,191l13,0c-44.3,-51.20001 -70.30001,-118.09998 -70.30001,-191c0,-61.60001 13.9,-127.60004 36.5,-193.60004l-10.39999,0c-22.6,66.00006 -36.5,132.00006 -36.5,193.60004l0,0zm601.59998,0c0,72.90002 -26.90002,139.79999 -70.29999,191l13,0c42.5,-52.09998 67.70001,-118.09998 67.70001,-191c0,-61.60001 -13.90002,-127.60004 -36.5,-193.60004l-10.40002,0c22.60004,66.00006 36.5,132.00006 36.5,193.60004zm-462.69998,-3.39999c0,91.99997 74.7,166.69998 167.5,166.69998c92,0 167.5,-74.70001 167.5,-166.69998c0,-92 -74.69998,-166.69998 -167.5,-166.69998s-167.5,74.59998 -167.5,166.69998zm324.70001,0c0,85.89999 -70.30002,156.30002 -158,156.30002c-86.8,0 -158,-70.30005 -158,-156.30002c0,-86.80002 70.3,-157.10001 158,-157.10001c87.60001,0.80005 158,70.30002 158,157.10001z" fill="#FFFFFF" marker-start="none" marker-end="none"/>
     <path id="svg_2" d="m306.52499,-284.81598c65.10001,0 117.19998,-52.10001 117.19998,-117.19998s-52.09998,-117.19998 -117.19998,-117.19998s-117.2,52.09998 -117.2,117.19998c0,64.19998 52.10001,117.19998 117.2,117.19998z" fill="#FFFFFF" marker-start="none" marker-end="none"/>
     <path id="svg_3" d="m182.425,-402.01599c0,68.60001 55.59999,124.09998 124.09999,124.09998s124.10001,-55.59998 124.10001,-124.09998c0,-68.60001 -55.60001,-124.09998 -124.10001,-124.09998c-68.5,0 -124.09999,55.49997 -124.09999,124.09998zm234.40001,0c0,60.79999 -49.5,111.09998 -111.10001,111.09998c-60.8,0 -111.09999,-49.49997 -111.09999,-111.09998c0,-60.79999 49.5,-111.10004 111.09999,-111.10004c61.60001,0 111.10001,50.30005 111.10001,111.10004z" fill="#38BBBB" marker-start="none" marker-end="none"/>
     <path id="svg_4" d="m327.42499,-429.81598c-4.29999,0.89999 -4.29999,12.20001 -4.29999,12.20001s12.19998,12.19998 14.79999,28.59998c6.89999,0 11.29999,17.40002 4.29999,23.40002c0,6.09998 9.5,50.29999 -35.59998,50.29999s-36.5,-43.30002 -35.70001,-50.20001c-6.89999,-6.10001 -2.60001,-23.39999 4.29999,-23.39999c2.60001,-16.5 14.80002,-28.60001 14.80002,-28.60001s0,-11.29999 -4.30002,-12.20001c-13,-1.69998 -63.39998,-24.29999 -63.39998,-48.59998c31.29999,-58.20001 144.09999,-50.29999 168.39998,0c0.00003,24.19998 -50.29999,46.79999 -63.29999,48.5z" fill="#38BBBB" marker-start="none" marker-end="none"/>
    </g>
   </g>
  </g>
 </g>
</svg>