<?xml version="1.0" encoding="utf-8"?>
<!-- Generated by IcoMoon.io -->
<!DOCTYPE svg PUBLIC "-//W3C//DTD SVG 1.1//EN" "http://www.w3.org/Graphics/SVG/1.1/DTD/svg11.dtd">
<svg version="1.1" xmlns="http://www.w3.org/2000/svg" xmlns:xlink="http://www.w3.org/1999/xlink" width="12" height="12" viewBox="0 0 12 12">
<path fill="#818491" d="M4.499 6c0 0.828 0.672 1.5 1.5 1.5s1.5-0.672 1.5-1.5v-0.012c-0.16 0.162-0.38 0.263-0.625 0.263-0.483 0-0.875-0.393-0.875-0.875 0-0.348 0.205-0.65 0.498-0.79-0.155-0.055-0.322-0.085-0.498-0.085-0.828 0-1.5 0.672-1.5 1.5zM11.664 5.148c-0.93-1.183-3.195-3.148-5.663-3.148-2.47 0-4.737 1.965-5.667 3.147-0.21 0.27-0.325 0.563-0.333 0.852 0.007 0.29 0.123 0.582 0.333 0.852 0.93 1.183 3.195 3.148 5.665 3.148s4.735-1.965 5.665-3.147c0.213-0.27 0.327-0.563 0.335-0.852-0.007-0.29-0.123-0.583-0.335-0.853zM5.999 8.5c-1.38 0-2.5-1.12-2.5-2.5s1.12-2.5 2.5-2.5 2.5 1.12 2.5 2.5c-0 1.38-1.12 2.5-2.5 2.5z"></path>
</svg>
