<?xml version="1.0" encoding="UTF-8"?>
<!DOCTYPE svg PUBLIC "-//W3C//DTD SVG 1.1//EN" "http://www.w3.org/Graphics/SVG/1.1/DTD/svg11.dtd">
<svg xmlns="http://www.w3.org/2000/svg" xml:space="preserve" width="20" height="20" version="1.1" style="shape-rendering:geometricPrecision; text-rendering:geometricPrecision; image-rendering:optimizeQuality; fill-rule:evenodd; clip-rule:evenodd"
viewBox="0 0 77 162"
 xmlns:xlink="http://www.w3.org/1999/xlink">
 <defs>
  <style type="text/css">
   <![CDATA[
    .fil0 {fill:white}
   ]]>
  </style>
 </defs>
 <g id="Слой_x0020_1">
  <metadata id="CorelCorpID_0Corel-Layer"/>
  <path id="path9" class="fil0" d="M75 0l-25 0c-24,0 -44,18 -44,54 0,21 10,37 27,45l-33 59c-1,2 0,4 2,4l15 0c2,0 3,-1 3,-2l30 -58 11 0 0 58c0,1 0,2 1,2l13 0c2,0 2,-1 2,-2l0 -158c0,-1 -1,-2 -2,-2zm-14 88l-9 0c-15,0 -28,-10 -28,-36 0,-27 13,-38 26,-38l11 0 0 74z"/>
 </g>
</svg>
